<svg xmlns="http://www.w3.org/2000/svg" viewBox="0 0 256 256">
  <defs>
    <linearGradient id="bg" x1="32" y1="28" x2="224" y2="228" gradientUnits="userSpaceOnUse">
      <stop offset="0" stop-color="#314b57"/>
      <stop offset="1" stop-color="#1d2830"/>
    </linearGradient>
    <linearGradient id="asset" x1="96" y1="86" x2="160" y2="160" gradientUnits="userSpaceOnUse">
      <stop offset="0" stop-color="#f7c86b"/>
      <stop offset="1" stop-color="#e88c3f"/>
    </linearGradient>
  </defs>
  <rect x="20" y="20" width="216" height="216" rx="42" fill="url(#bg)"/>
  <path d="M128 44
           C171 44 205 79 205 122" fill="none" stroke="#7fd6d6" stroke-linecap="round" stroke-width="14"/>
  <path d="M194 96l24 30-38 2" fill="none" stroke="#7fd6d6" stroke-linecap="round" stroke-linejoin="round" stroke-width="14"/>
  <path d="M128 212
           C85 212 51 177 51 134" fill="none" stroke="#7fd6d6" stroke-linecap="round" stroke-width="14"/>
  <path d="M62 160l-24-30 38-2" fill="none" stroke="#7fd6d6" stroke-linecap="round" stroke-linejoin="round" stroke-width="14"/>
  <path d="M128 72l44 24v52l-44 24-44-24V96z" fill="url(#asset)" stroke="#f8ecd2" stroke-linejoin="round" stroke-width="8"/>
  <path d="M128 72v52m44-28l-44 28-44-28" fill="none" stroke="#f8ecd2" stroke-linejoin="round" stroke-width="8"/>
  <path d="M128 124v48" fill="none" stroke="#f8ecd2" stroke-linecap="round" stroke-width="8"/>
</svg>
